# xmcd
#
# Track frame offsets: 
#        183
#        15140
#        27120
#        40313
#        57748
#        72803
#        88450
#        102280
#        117910
#        136698
#        152975
#        172230
#        188665
#        202998
#        220318
#        237603
#        253750
#        271438
#        287955
#        307433
#        324015
#        341430
#
# Disc length: 4788 seconds
#
# Revision: 2
# Processed by: cddbd v1.5.1PL2 Copyright (c) Steve Scherf et al.
# Submitted via: ExactAudioCopy v0.95b4
#
DISCID=4e12b216
DTITLE=Kenny Rogers - Anthology
DYEAR=1990
DGENRE=Country
TTITLE0=Just Dropped In
TTITLE1=But You Know I Love You
TTITLE2=Ruby (Don´t Take Your Love To Town)
TTITLE3=Something´s Burning
TTITLE4=Tell It All Brother
TTITLE5=Lucille
TTITLE6=Day Time Friends, Night Time Lovers
TTITLE7=The Gambler
TTITLE8=She Believes In Me
TTITLE9=You Decorated My Life
TTITLE10=Coward Of The Country
TTITLE11=Don´t Fall In Love With A Dreamer
TTITLE12=Love The World Away
TTITLE13=Lady
TTITLE14=We´ve Got Tonight
TTITLE15=Buried Treasure
TTITLE16=This Woman
TTITLE17=Eyes That See In The Dark
TTITLE18=What About Me?
TTITLE19=Crazy
TTITLE20=Tomb Of The Unknown Love
TTITLE21=Make No Mistake, She´s Mine
EXTD=
EXTT0=
EXTT1=
EXTT2=
EXTT3=
EXTT4=
EXTT5=
EXTT6=
EXTT7=
EXTT8=
EXTT9=
EXTT10=
EXTT11=
EXTT12=
EXTT13=
EXTT14=
EXTT15=
EXTT16=
EXTT17=
EXTT18=
EXTT19=
EXTT20=
EXTT21=
PLAYORDER=
